<svg width="138" height="141" viewBox="0 0 138 141" fill="none" xmlns="http://www.w3.org/2000/svg">
<path d="M70.0345 140.411C108.713 140.411 70.0345 109.336 70.0345 70.4355C70.0345 31.535 108.713 0 70.0345 0C31.3555 0 0 31.535 0 70.4355C0 109.336 31.3555 140.411 70.0345 140.411Z" fill="#FDD835"/>
<path d="M68.1933 139.613C106.746 139.613 138 108.36 138 69.8067C138 31.2535 106.746 0 68.1933 0C29.6401 0 68.1934 37.6358 68.1934 76.189C68.1934 114.742 29.6401 139.613 68.1933 139.613Z" fill="#3E4347"/>
<path d="M105.508 94.2068C114.504 94.2068 121.796 86.9143 121.796 77.9186C121.796 68.9229 114.504 61.6304 105.508 61.6304C96.5122 61.6304 89.2197 68.9229 89.2197 77.9186C89.2197 86.9143 96.5122 94.2068 105.508 94.2068Z" fill="#464D51"/>
<path d="M75.2582 47.6688C80.3987 47.6688 84.5658 43.5017 84.5658 38.3613C84.5658 33.2208 80.3987 29.0537 75.2582 29.0537C70.1178 29.0537 65.9507 33.2208 65.9507 38.3613C65.9507 43.5017 70.1178 47.6688 75.2582 47.6688Z" fill="#464D51"/>
<path d="M79.9111 22.0722C82.4813 22.0722 84.5649 19.9886 84.5649 17.4184C84.5649 14.8482 82.4813 12.7646 79.9111 12.7646C77.3409 12.7646 75.2573 14.8482 75.2573 17.4184C75.2573 19.9886 77.3409 22.0722 79.9111 22.0722Z" fill="#464D51"/>
<path d="M96.2001 127.712C101.341 127.712 105.508 123.545 105.508 118.404C105.508 113.264 101.341 109.097 96.2001 109.097C91.0597 109.097 86.8926 113.264 86.8926 118.404C86.8926 123.545 91.0597 127.712 96.2001 127.712Z" fill="#464D51"/>
</svg>
