<svg width="136" height="136" viewBox="0 0 136 136" fill="none" xmlns="http://www.w3.org/2000/svg">
<path d="M68 131.75C103.208 131.75 131.75 103.208 131.75 68C131.75 32.7918 103.208 4.25 68 4.25C32.7918 4.25 4.25 32.7918 4.25 68C4.25 103.208 32.7918 131.75 68 131.75Z" fill="#3E4347"/>
<path d="M106.25 89.6753C114.465 89.6753 121.125 83.0155 121.125 74.8003C121.125 66.5851 114.465 59.9253 106.25 59.9253C98.0348 59.9253 91.375 66.5851 91.375 74.8003C91.375 83.0155 98.0348 89.6753 106.25 89.6753Z" fill="#464D51"/>
<path d="M38.4629 95.625C45.5045 95.625 51.2129 89.9166 51.2129 82.875C51.2129 75.8334 45.5045 70.125 38.4629 70.125C31.4213 70.125 25.7129 75.8334 25.7129 82.875C25.7129 89.9166 31.4213 95.625 38.4629 95.625Z" fill="#464D51"/>
<path d="M51.4258 125.375C61.9882 125.375 70.5508 116.812 70.5508 106.25C70.5508 95.6876 61.9882 87.125 51.4258 87.125C40.8633 87.125 32.3008 95.6876 32.3008 106.25C32.3008 116.812 40.8633 125.375 51.4258 125.375Z" fill="#464D51"/>
<path d="M51 45.0503C55.6944 45.0503 59.5 41.2447 59.5 36.5503C59.5 31.8559 55.6944 28.0503 51 28.0503C46.3056 28.0503 42.5 31.8559 42.5 36.5503C42.5 41.2447 46.3056 45.0503 51 45.0503Z" fill="#464D51"/>
<path d="M78.625 47.1753C83.3194 47.1753 87.125 43.3697 87.125 38.6753C87.125 33.9809 83.3194 30.1753 78.625 30.1753C73.9306 30.1753 70.125 33.9809 70.125 38.6753C70.125 43.3697 73.9306 47.1753 78.625 47.1753Z" fill="#464D51"/>
<path d="M25.7129 63.5371C30.4073 63.5371 34.2129 59.7315 34.2129 55.0371C34.2129 50.3427 30.4073 46.5371 25.7129 46.5371C21.0185 46.5371 17.2129 50.3427 17.2129 55.0371C17.2129 59.7315 21.0185 63.5371 25.7129 63.5371Z" fill="#464D51"/>
<path d="M82.875 23.8003C85.2222 23.8003 87.125 21.8975 87.125 19.5503C87.125 17.2031 85.2222 15.3003 82.875 15.3003C80.5278 15.3003 78.625 17.2031 78.625 19.5503C78.625 21.8975 80.5278 23.8003 82.875 23.8003Z" fill="#464D51"/>
<path d="M17.2129 87.125C19.5601 87.125 21.4629 85.2222 21.4629 82.875C21.4629 80.5278 19.5601 78.625 17.2129 78.625C14.8657 78.625 12.9629 80.5278 12.9629 82.875C12.9629 85.2222 14.8657 87.125 17.2129 87.125Z" fill="#464D51"/>
<path d="M110.5 110.5C112.847 110.5 114.75 108.597 114.75 106.25C114.75 103.903 112.847 102 110.5 102C108.153 102 106.25 103.903 106.25 106.25C106.25 108.597 108.153 110.5 110.5 110.5Z" fill="#464D51"/>
<path d="M53.125 69.9121C56.6458 69.9121 59.5 67.0579 59.5 63.5371C59.5 60.0163 56.6458 57.1621 53.125 57.1621C49.6042 57.1621 46.75 60.0163 46.75 63.5371C46.75 67.0579 49.6042 69.9121 53.125 69.9121Z" fill="#464D51"/>
<path d="M31.875 37.6128C34.2222 37.6128 36.125 35.71 36.125 33.3628C36.125 31.0156 34.2222 29.1128 31.875 29.1128C29.5278 29.1128 27.625 31.0156 27.625 33.3628C27.625 35.71 29.5278 37.6128 31.875 37.6128Z" fill="#464D51"/>
<path d="M97.75 120.275C102.444 120.275 106.25 116.47 106.25 111.775C106.25 107.081 102.444 103.275 97.75 103.275C93.0556 103.275 89.25 107.081 89.25 111.775C89.25 116.47 93.0556 120.275 97.75 120.275Z" fill="#464D51"/>
<path d="M51.4258 22.95C51.4258 28.9 56.1008 33.575 62.0508 33.575C68.0008 33.575 72.6758 28.9 72.6758 22.95C72.6758 17 68.0008 12.325 62.0508 12.325C56.1008 12.1125 51.4258 17 51.4258 22.95Z" fill="#464D51"/>
</svg>
