<svg width="171" height="171" viewBox="0 0 171 171" fill="none" xmlns="http://www.w3.org/2000/svg">
<path d="M54.7307 159.382L73.419 140.16C66.7446 138.825 60.6042 136.156 54.9977 132.418L54.7307 159.382Z" fill="#FFE62E"/>
<path d="M116.134 11.4795L97.446 30.7017C104.12 32.0366 110.261 34.7063 115.867 38.444L116.134 11.4795Z" fill="#FFE62E"/>
<path d="M11.4805 116.135L38.445 115.868C34.7073 110.262 32.0376 104.121 30.7027 97.4468L11.4805 116.135Z" fill="#FFE62E"/>
<path d="M159.385 54.7305L132.42 54.9974C135.891 60.6039 138.561 66.7444 140.162 73.4187L159.385 54.7305Z" fill="#FFE62E"/>
<path d="M11.4805 54.7305L30.7027 73.4187C32.0376 66.7444 34.7073 60.6039 38.445 54.9974L11.4805 54.7305Z" fill="#FFE62E"/>
<path d="M159.385 116.135L140.162 97.4468C138.828 104.121 136.158 110.262 132.42 115.868L159.385 116.135Z" fill="#FFE62E"/>
<path d="M54.7307 11.4795L54.9977 38.444C60.6042 34.9733 66.7446 32.3036 73.419 30.7017L54.7307 11.4795Z" fill="#FFE62E"/>
<path d="M116.134 159.382L115.867 132.418C110.261 136.156 104.12 138.825 97.446 140.16L116.134 159.382Z" fill="#FFE62E"/>
<path d="M39.512 117.469L28.833 142.297L53.6617 131.618C48.0552 127.614 43.2497 122.808 39.512 117.469Z" fill="#FDD835"/>
<path d="M131.351 53.3971L142.03 28.5684L117.469 39.2474C122.808 43.252 127.614 48.0576 131.351 53.3971Z" fill="#FDD835"/>
<path d="M30.435 75.5537L5.33936 85.4318L30.435 95.3099C29.6341 92.1062 29.3671 88.9025 29.3671 85.4318C29.3671 81.9611 29.6341 78.7574 30.435 75.5537Z" fill="#FDD835"/>
<path d="M140.429 95.3099L165.525 85.4318L140.429 75.5537C140.963 78.7574 141.497 82.2281 141.497 85.4318C141.497 88.9025 141.23 92.1062 140.429 95.3099Z" fill="#FDD835"/>
<path d="M53.3946 39.5115L28.5659 28.8325L39.2449 53.6612C43.2496 48.0547 48.0551 43.2492 53.3946 39.5115Z" fill="#FDD835"/>
<path d="M117.469 131.353L142.297 142.032L131.618 117.203C127.614 122.81 122.808 127.615 117.469 131.353Z" fill="#FDD835"/>
<path d="M95.3099 30.4355L85.4318 5.33984L75.5537 30.4355C78.7574 29.9016 82.2281 29.3676 85.4318 29.3676C88.6355 29.3676 92.1062 29.6346 95.3099 30.4355Z" fill="#FDD835"/>
<path d="M75.5537 140.43L85.4318 165.525L95.3099 140.43C92.1062 141.231 88.9025 141.498 85.4318 141.498C81.9611 141.498 78.7574 141.231 75.5537 140.43Z" fill="#FDD835"/>
<path d="M85.4321 136.158C113.447 136.158 136.157 113.447 136.157 85.4323C136.157 57.4175 113.447 34.707 85.4321 34.707C57.4173 34.707 34.7068 57.4175 34.7068 85.4323C34.7068 113.447 57.4173 136.158 85.4321 136.158Z" fill="#FDD835"/>
</svg>
