<svg width="105" height="105" viewBox="0 0 105 105" fill="none" xmlns="http://www.w3.org/2000/svg">
<path fill-rule="evenodd" clip-rule="evenodd" d="M104.583 52.5003C104.583 81.266 81.2655 104.584 52.4998 104.584C23.7342 104.584 0.416504 81.266 0.416504 52.5003C0.416504 23.7347 23.7342 0.416992 52.4998 0.416992C81.2655 0.416992 104.583 23.7347 104.583 52.5003ZM79.0806 27.2217C79.5688 27.71 79.843 28.3723 79.843 29.0628C79.843 29.7534 79.5688 30.4156 79.0806 30.904L30.9035 79.0811C30.4123 79.5554 29.7545 79.8179 29.0717 79.812C28.3889 79.806 27.7357 79.5322 27.2529 79.0493C26.7701 78.5665 26.4962 77.9133 26.4903 77.2305C26.4843 76.5477 26.7468 75.8899 27.2212 75.3988L75.3983 27.2217C75.8866 26.7335 76.5489 26.4592 77.2394 26.4592C77.93 26.4592 78.5922 26.7335 79.0806 27.2217Z" fill="#ED729E"/>
</svg>
